<?xml version="1.0" standalone="no"?>
<!DOCTYPE svg PUBLIC "-//W3C//DTD SVG 20010904//EN"
 "http://www.w3.org/TR/2001/REC-SVG-20010904/DTD/svg10.dtd">
<svg version="1.0" xmlns="http://www.w3.org/2000/svg"
 width="512.000000pt" height="512.000000pt" viewBox="0 0 512.000000 512.000000"
 preserveAspectRatio="xMidYMid meet">

<g transform="translate(0.000000,512.000000) scale(0.100000,-0.100000)"
fill="#000000" stroke="none">
<path d="M585 3891 c-55 -25 -108 -87 -135 -157 -29 -79 -26 -207 8 -275 12
-25 129 -174 260 -331 130 -157 284 -343 342 -413 58 -70 117 -142 132 -159
85 -100 436 -523 453 -545 11 -15 176 -214 366 -442 384 -462 382 -459 495
-459 122 1 46 -79 930 986 582 701 705 849 784 944 355 422 360 430 360 565 0
130 -61 244 -155 286 -51 24 -145 25 -192 2 -51 -24 -73 -48 -353 -387 -253
-305 -385 -465 -860 -1036 -135 -162 -256 -308 -270 -326 -87 -110 -235 -279
-245 -279 -9 0 -189 209 -335 389 -8 10 -38 46 -67 80 -42 50 -229 276 -408
491 -139 168 -655 789 -685 825 -21 25 -65 78 -98 118 -69 82 -107 117 -146
132 -43 16 -136 12 -181 -9z"/>
</g>
</svg>
