<?xml version="1.0" standalone="no"?>
<!DOCTYPE svg PUBLIC "-//W3C//DTD SVG 20010904//EN"
 "http://www.w3.org/TR/2001/REC-SVG-20010904/DTD/svg10.dtd">
<svg version="1.0" xmlns="http://www.w3.org/2000/svg"
 width="512.000000pt" height="512.000000pt" viewBox="0 0 512.000000 512.000000"
 preserveAspectRatio="xMidYMid meet">

<g transform="translate(0.000000,512.000000) scale(0.100000,-0.100000)"
fill="#000000" stroke="none">
<path d="M2315 3961 c-77 -35 -115 -95 -115 -178 0 -95 -23 -70 803 -872 70
-69 127 -128 127 -132 0 -5 -453 -9 -1006 -9 -895 0 -1010 -2 -1040 -16 -151
-72 -154 -283 -5 -359 l50 -25 1003 0 1003 -1 -217 -212 c-414 -405 -659 -649
-686 -685 -24 -31 -27 -44 -27 -108 0 -66 3 -76 31 -111 47 -58 98 -83 169
-83 45 0 69 6 97 23 37 22 463 435 1035 1002 285 283 292 291 299 337 8 59 -2
114 -26 148 -16 22 -257 263 -396 396 -29 27 -237 231 -464 454 -227 223 -431
415 -453 428 -52 27 -126 29 -182 3z"/>
</g>
</svg>
